# xmcd
# 
# Track frame offsets:
#   150
#   13630
#   28014
#   53241
#   73448
#   97194
#   128646
#   155630
#   184346
#   212611
#   225614
#   246775
#   279131
#   324791
# 
# Disc length: 4547 seconds
# 
# Revision: 1
# Processed by: cddbd v1.5.1PL0 Copyright (c) Steve Scherf et al.
# Submitted via: VOLTOCDX V1.0.22 
# 
DISCID=c211c10e
DTITLE=Janis Joplin with Big Brother and The Holding Company - Live At Winterland '68
DYEAR=1998
DGENRE=blues
TTITLE0=Down On Me
TTITLE1=Flower In The Sun
TTITLE2=I Need A Man To Love
TTITLE3=Bye, Bye Baby
TTITLE4=Easy Rider
TTITLE5=Combination Of The Two
TTITLE6=Farewell Song
TTITLE7=Piece Of My Heart
TTITLE8=Catch Me Daddy
TTITLE9=Magic Of Love
TTITLE10=Summertime
TTITLE11=Light Is Faster Than Sound
TTITLE12=Ball And Chain
TTITLE13=Down On Me
EXTD=Label: Sony \nCatalog: #64869 \nASIN: B000007TSP \n\n
EXTT0=
EXTT1=
EXTT2=
EXTT3=
EXTT4=
EXTT5=
EXTT6=
EXTT7=
EXTT8=
EXTT9=
EXTT10=
EXTT11=
EXTT12=
EXTT13=
PLAYORDER=
